<svg width="18" height="19" viewBox="0 0 18 19" fill="none" xmlns="http://www.w3.org/2000/svg">
<path fill-rule="evenodd" clip-rule="evenodd" d="M8.44438 0.568387C8.55357 0.613593 8.65275 0.680002 8.73621 0.763714L17.7361 9.76325C17.8198 9.84674 17.8861 9.94588 17.9314 10.0551C17.9767 10.1643 18 10.2813 18 10.3995C18 10.5177 17.9767 10.6347 17.9314 10.7439C17.8861 10.8531 17.8198 10.9522 17.7361 11.0358L10.5362 18.2354C10.4528 18.3192 10.3537 18.3858 10.2445 18.4312C10.1353 18.4766 10.0182 18.5 9.8999 18.5C9.78164 18.5 9.66454 18.4766 9.55534 18.4312C9.44614 18.3858 9.34699 18.3192 9.26361 18.2354L0.263698 9.23588C0.094503 9.06757 9.45328e-07 8.83896 9.45328e-07 8.59958V4.09981C-0.000170714 3.98161 0.0230377 3.86455 0.068294 3.75536C0.11355 3.64616 0.179962 3.54696 0.263698 3.46357L2.96367 0.763714C3.04714 0.680002 3.14632 0.613593 3.25551 0.568387C3.3647 0.523125 3.48177 0.499891 3.59996 0.5H8.09992C8.21812 0.499891 8.33518 0.523125 8.44438 0.568387ZM1.79998 8.227L9.8999 16.3266L15.8272 10.3995L7.72732 2.29991H3.97256L1.79998 4.4724V8.227ZM7.19998 6.21743C7.19998 7.03609 6.53633 7.69968 5.7177 7.69968C4.89905 7.69968 4.23541 7.03609 4.23541 6.21743C4.23541 5.39882 4.89905 4.73523 5.7177 4.73523C6.53633 4.73523 7.19998 5.39882 7.19998 6.21743Z" fill="#4D4D4D"/>
</svg>
