<svg width="18" height="21" viewBox="0 0 18 21" fill="none" xmlns="http://www.w3.org/2000/svg">
<path fill-rule="evenodd" clip-rule="evenodd" d="M8.58088 2.47447L8.56395 2.48446L6.80387 3.49834L13.05 7.09769L15.247 5.83169L9.43695 2.48446C9.30328 2.40747 9.1529 2.36706 9 2.36706C8.85386 2.36706 8.71002 2.40397 8.58088 2.47447ZM16.2 7.41834L13.95 8.71491V11.433C13.95 11.9485 13.5471 12.3665 13.05 12.3665C12.5529 12.3665 12.15 11.9485 12.15 11.433V9.75216L9.9 11.0487V18.2486L15.7367 14.8842L15.7369 14.8841C15.8773 14.8033 15.9942 14.685 16.0756 14.5416C16.157 14.3982 16.1999 14.2348 16.2 14.0684V14.0682V7.41834ZM8.1 18.2486V11.0487L1.8 7.41834V14.069C1.80017 14.2353 1.84316 14.3985 1.92452 14.5418C2.00593 14.6851 2.12281 14.8033 2.26305 14.8841L2.26327 14.8842L8.1 18.2486ZM2.75311 5.83173L9 9.43152L11.1968 8.16561L4.95031 4.56606L2.75311 5.83173ZM7.66473 0.866795L4.53874 2.66749C4.52095 2.67695 4.50344 2.68703 4.48624 2.69773L0.925646 4.74877L0.9252 4.74903C0.644753 4.91079 0.411097 5.14738 0.248427 5.43428C0.0857631 5.72118 -6.65149e-06 6.04796 3.86886e-10 6.3808V6.38084V14.0694V14.07C0.000354857 14.5692 0.129327 15.0592 0.373565 15.4893C0.617804 15.9194 0.968432 16.274 1.38915 16.5164L7.68893 20.1477L7.68915 20.1478C8.09016 20.3788 8.5413 20.5 9 20.5C9.4587 20.5 9.90984 20.3788 10.3109 20.1478L10.3111 20.1477L16.6109 16.5164C17.0318 16.2739 17.3825 15.9191 17.6268 15.4887C17.871 15.0583 17.9999 14.568 18 14.0686V14.0684V6.38084V6.3808C18 6.04796 17.9142 5.72118 17.7516 5.43428C17.5889 5.14738 17.3552 4.91079 17.0748 4.74903L17.0744 4.74879L10.3109 0.85224L10.3109 0.852211C9.90984 0.621216 9.4587 0.5 9 0.5C8.5413 0.5 8.09016 0.621216 7.68915 0.852211C7.68092 0.856955 7.67278 0.861817 7.66473 0.866795ZM2.81385 10.3512C3.05583 9.90081 3.60397 9.7392 4.03815 9.9902L6.73815 11.5511C7.17232 11.8021 7.32813 12.3706 7.08615 12.821C6.84417 13.2713 6.29603 13.4329 5.86185 13.1819L3.16185 11.6211C2.72768 11.3701 2.57187 10.8015 2.81385 10.3512Z" fill="#4D4D4D"/>
</svg>
