<svg width="22" height="17" viewBox="0 0 22 17" fill="none" xmlns="http://www.w3.org/2000/svg">
<path fill-rule="evenodd" clip-rule="evenodd" d="M1.57143 0.5H20.4286C20.8453 0.5 21.245 0.668555 21.5397 0.968652C21.8344 1.2687 22 1.67563 22 2.1V14.9C22 15.3244 21.8344 15.7313 21.5397 16.0313C21.245 16.3314 20.8453 16.5 20.4286 16.5H1.57143C1.15467 16.5 0.754962 16.3314 0.46026 16.0313C0.165557 15.7313 0 15.3244 0 14.9V2.1C0 1.67563 0.165557 1.2687 0.46026 0.968652C0.754962 0.668555 1.15467 0.5 1.57143 0.5ZM20.4286 4.5V2.1H1.57143V4.5H20.4286ZM1.57143 6.1V14.9H20.4286V6.1H1.57143ZM11 11.7H3.14286V13.3H11V11.7Z" fill="#4D4D4D"/>
</svg>
