<svg width="25" height="20" viewBox="0 0 25 20" fill="none" xmlns="http://www.w3.org/2000/svg">
<path d="M4.5 4.04H22L19.7796 12.476C19.6123 13.111 19.2591 13.6696 18.7733 14.0673C18.2876 14.465 17.6958 14.68 17.0874 14.68H7.7074C7.01785 14.6804 6.3524 14.4046 5.83857 13.9053C5.32473 13.4061 4.99865 12.7185 4.9228 11.9744L3.8 1H1" stroke="#5C5C5C" stroke-linecap="round" stroke-linejoin="round"/>
<path d="M7.2999 20.0001C8.0731 20.0001 8.6999 19.3195 8.6999 18.4801C8.6999 17.6406 8.0731 16.9601 7.2999 16.9601C6.5267 16.9601 5.8999 17.6406 5.8999 18.4801C5.8999 19.3195 6.5267 20.0001 7.2999 20.0001Z" fill="#5C5C5C"/>
<path d="M18.4999 20.0001C19.2731 20.0001 19.8999 19.3195 19.8999 18.4801C19.8999 17.6406 19.2731 16.9601 18.4999 16.9601C17.7267 16.9601 17.0999 17.6406 17.0999 18.4801C17.0999 19.3195 17.7267 20.0001 18.4999 20.0001Z" fill="#5C5C5C"/>
<circle cx="22.5" cy="2.5" r="2.5" fill="#FFA500"/>
</svg>
