<svg width="18" height="19" viewBox="0 0 18 19" fill="none" xmlns="http://www.w3.org/2000/svg">
<path fill-rule="evenodd" clip-rule="evenodd" d="M15.4286 13.2229C14.7771 13.2229 14.1943 13.494 13.7486 13.9187L10.4604 11.9011C10.9043 11.0449 11.1429 10.0776 11.1429 9.08434C11.1429 8.34117 11.0117 7.63064 10.7725 6.97664L13.68 5.18977C14.1428 5.64157 14.7514 5.92169 15.4286 5.92169C16.8514 5.92169 18 4.71082 18 3.21085C18 1.71087 16.8514 0.5 15.4286 0.5C14.0057 0.5 12.8571 1.71087 12.8571 3.21085C12.8571 3.4277 12.8914 3.63552 12.9343 3.84339L10.0611 5.6092C9.04464 4.15406 7.40811 3.21085 5.57145 3.21085C4.8398 3.21085 4.11531 3.36279 3.43935 3.65797C2.76339 3.95309 2.1492 4.38576 1.63184 4.93116C0.586986 6.03266 0 7.52662 0 9.08434C0 10.6421 0.586986 12.136 1.63184 13.2375C2.1492 13.7829 2.76339 14.2156 3.43935 14.5107C4.11531 14.8059 4.8398 14.9578 5.57145 14.9578C7.04909 14.9578 8.46622 14.339 9.51106 13.2375C9.53277 13.2146 9.55428 13.1916 9.57559 13.1684L12.9943 15.2741C12.9514 15.4639 12.9257 15.6627 12.9257 15.8615C12.9257 17.3163 14.0486 18.5 15.4286 18.5C16.8086 18.5 17.9314 17.3163 17.9314 15.8615C17.9314 14.4067 16.8086 13.2229 15.4286 13.2229ZM2.22859 11.4337C2.9473 12.5615 4.17859 13.3133 5.57145 13.3133C6.23211 13.3129 6.88256 13.1413 7.4655 12.8135C8.04844 12.4858 8.54599 12.0119 8.91432 11.4337C8.8976 10.259 6.68575 9.61298 5.57145 9.61298C4.45716 9.61298 2.2453 10.259 2.22859 11.4337ZM6.75334 5.48897C6.43989 5.15855 6.01474 4.97291 5.57145 4.97291C5.12817 4.97291 4.70302 5.15855 4.38957 5.48897C4.07612 5.81944 3.90002 6.26761 3.90002 6.73497C3.90002 7.20227 4.07612 7.65044 4.38957 7.98091C4.70302 8.31133 5.12817 8.49697 5.57145 8.49697C6.01474 8.49697 6.43989 8.31133 6.75334 7.98091C7.06679 7.65044 7.24289 7.20227 7.24289 6.73497C7.24289 6.26761 7.06679 5.81944 6.75334 5.48897Z" fill="#4D4D4D"/>
</svg>
