<svg width="126" height="49" viewBox="0 0 126 49" fill="none" xmlns="http://www.w3.org/2000/svg">
<g clip-path="url(#clip0_0_677)">
<path d="M120.376 9.5495L120.231 9.8L120.376 10.0505L123.43 15.3252L120.365 21.2065L120.251 21.4269L120.357 21.6515L123.447 28.175L120.357 34.6985L120.256 34.9125L120.357 35.1265L123.5 41.7624V48.5H0.5V0.5H123.5V4.15321L120.376 9.5495Z" fill="#FFA500" stroke="#FFA500"/>
<path fill-rule="evenodd" clip-rule="evenodd" d="M-5.43939 39.7864C-0.292603 38.1234 -1.68126 28.6312 3.42105 26.8452C9.41177 24.7483 16.0431 32.4248 21.9795 30.189C26.9815 28.305 26.998 21.2421 29.8877 16.877C34.0988 10.5157 43.1418 5.98404 42.9983 -1.56197C42.8649 -8.58019 33.8031 -12.1036 29.2328 -17.5665C24.6883 -22.9987 23.0053 -35.5847 15.9993 -33.8345C5.02528 -31.0931 4.72122 -13.7533 -5.43939 -8.90503C-10.2224 -6.62273 -13.3074 -16.9125 -18.6278 -17.3117C-23.4758 -17.6755 -27.7105 -13.9278 -31.3808 -10.8515C-35.3969 -7.4853 -42.1157 -3.67494 -40.8418 1.30746C-39.2174 7.66073 -26.6902 7.06659 -25.1691 13.4436C-23.6521 19.8036 -36.0508 24.7516 -33.7832 30.9003C-31.936 35.9091 -22.9511 32.0292 -17.709 33.6727C-13.2754 35.0626 -9.85981 41.2147 -5.43939 39.7864Z" fill="#E0950B"/>
<path d="M122.326 9.54649L122.177 9.8L122.326 10.0535L125.427 15.3253L122.315 21.2036L122.197 21.4268L122.307 21.6543L125.445 28.175L122.307 34.6957L122.202 34.9125L122.307 35.1293L125.5 41.7641V48.5H0.5V0.5H125.5V4.15134L122.326 9.54649Z" stroke="#FFA500"/>
<path d="M24.436 10.636L22.012 19H20.788L18.844 12.268L16.828 19L15.616 19.012L13.276 10.636H14.44L16.264 17.728L18.28 10.636H19.504L21.424 17.704L23.26 10.636H24.436ZM26.435 11.356C26.227 11.356 26.051 11.284 25.907 11.14C25.763 10.996 25.691 10.82 25.691 10.612C25.691 10.404 25.763 10.228 25.907 10.084C26.051 9.94 26.227 9.868 26.435 9.868C26.635 9.868 26.803 9.94 26.939 10.084C27.083 10.228 27.155 10.404 27.155 10.612C27.155 10.82 27.083 10.996 26.939 11.14C26.803 11.284 26.635 11.356 26.435 11.356ZM26.963 12.424V19H25.871V12.424H26.963ZM32.2682 12.304C33.0682 12.304 33.7162 12.548 34.2122 13.036C34.7082 13.516 34.9562 14.212 34.9562 15.124V19H33.8762V15.28C33.8762 14.624 33.7122 14.124 33.3842 13.78C33.0562 13.428 32.6082 13.252 32.0402 13.252C31.4642 13.252 31.0042 13.432 30.6602 13.792C30.3242 14.152 30.1562 14.676 30.1562 15.364V19H29.0642V12.424H30.1562V13.36C30.3722 13.024 30.6642 12.764 31.0322 12.58C31.4082 12.396 31.8202 12.304 32.2682 12.304ZM38.3119 13.324V17.2C38.3119 17.52 38.3799 17.748 38.5159 17.884C38.6519 18.012 38.8879 18.076 39.2239 18.076H40.0279V19H39.0439C38.4359 19 37.9799 18.86 37.6759 18.58C37.3719 18.3 37.2199 17.84 37.2199 17.2V13.324H36.3679V12.424H37.2199V10.768H38.3119V12.424H40.0279V13.324H38.3119ZM47.591 15.46C47.591 15.668 47.579 15.888 47.555 16.12H42.299C42.339 16.768 42.559 17.276 42.959 17.644C43.367 18.004 43.859 18.184 44.435 18.184C44.907 18.184 45.299 18.076 45.611 17.86C45.931 17.636 46.155 17.34 46.283 16.972H47.459C47.283 17.604 46.931 18.12 46.403 18.52C45.875 18.912 45.219 19.108 44.435 19.108C43.811 19.108 43.251 18.968 42.755 18.688C42.267 18.408 41.883 18.012 41.603 17.5C41.323 16.98 41.183 16.38 41.183 15.7C41.183 15.02 41.319 14.424 41.591 13.912C41.863 13.4 42.243 13.008 42.731 12.736C43.227 12.456 43.795 12.316 44.435 12.316C45.059 12.316 45.611 12.452 46.091 12.724C46.571 12.996 46.939 13.372 47.195 13.852C47.459 14.324 47.591 14.86 47.591 15.46ZM46.463 15.232C46.463 14.816 46.371 14.46 46.187 14.164C46.003 13.86 45.751 13.632 45.431 13.48C45.119 13.32 44.771 13.24 44.387 13.24C43.835 13.24 43.363 13.416 42.971 13.768C42.587 14.12 42.367 14.608 42.311 15.232H46.463ZM50.3644 13.492C50.5564 13.116 50.8284 12.824 51.1804 12.616C51.5404 12.408 51.9764 12.304 52.4884 12.304V13.432H52.2004C50.9764 13.432 50.3644 14.096 50.3644 15.424V19H49.2724V12.424H50.3644V13.492ZM60.0802 19.084C59.5282 19.084 59.0322 18.988 58.5922 18.796C58.1602 18.596 57.8202 18.324 57.5722 17.98C57.3242 17.628 57.1962 17.224 57.1882 16.768H58.3522C58.3922 17.16 58.5522 17.492 58.8322 17.764C59.1202 18.028 59.5362 18.16 60.0802 18.16C60.6002 18.16 61.0082 18.032 61.3042 17.776C61.6082 17.512 61.7602 17.176 61.7602 16.768C61.7602 16.448 61.6722 16.188 61.4962 15.988C61.3202 15.788 61.1002 15.636 60.8362 15.532C60.5722 15.428 60.2162 15.316 59.7682 15.196C59.2162 15.052 58.7722 14.908 58.4362 14.764C58.1082 14.62 57.8242 14.396 57.5842 14.092C57.3522 13.78 57.2362 13.364 57.2362 12.844C57.2362 12.388 57.3522 11.984 57.5842 11.632C57.8162 11.28 58.1402 11.008 58.5562 10.816C58.9802 10.624 59.4642 10.528 60.0082 10.528C60.7922 10.528 61.4322 10.724 61.9282 11.116C62.4322 11.508 62.7162 12.028 62.7802 12.676H61.5802C61.5402 12.356 61.3722 12.076 61.0762 11.836C60.7802 11.588 60.3882 11.464 59.9002 11.464C59.4442 11.464 59.0722 11.584 58.7842 11.824C58.4962 12.056 58.3522 12.384 58.3522 12.808C58.3522 13.112 58.4362 13.36 58.6042 13.552C58.7802 13.744 58.9922 13.892 59.2402 13.996C59.4962 14.092 59.8522 14.204 60.3082 14.332C60.8602 14.484 61.3042 14.636 61.6402 14.788C61.9762 14.932 62.2642 15.16 62.5042 15.472C62.7442 15.776 62.8642 16.192 62.8642 16.72C62.8642 17.128 62.7562 17.512 62.5402 17.872C62.3242 18.232 62.0042 18.524 61.5802 18.748C61.1562 18.972 60.6562 19.084 60.0802 19.084ZM67.5792 19.108C66.9632 19.108 66.4032 18.968 65.8992 18.688C65.4032 18.408 65.0112 18.012 64.7232 17.5C64.4432 16.98 64.3032 16.38 64.3032 15.7C64.3032 15.028 64.4472 14.436 64.7352 13.924C65.0312 13.404 65.4312 13.008 65.9352 12.736C66.4392 12.456 67.0032 12.316 67.6272 12.316C68.2512 12.316 68.8152 12.456 69.3192 12.736C69.8232 13.008 70.2192 13.4 70.5072 13.912C70.8032 14.424 70.9512 15.02 70.9512 15.7C70.9512 16.38 70.7992 16.98 70.4952 17.5C70.1992 18.012 69.7952 18.408 69.2832 18.688C68.7712 18.968 68.2032 19.108 67.5792 19.108ZM67.5792 18.148C67.9712 18.148 68.3392 18.056 68.6832 17.872C69.0272 17.688 69.3032 17.412 69.5112 17.044C69.7272 16.676 69.8352 16.228 69.8352 15.7C69.8352 15.172 69.7312 14.724 69.5232 14.356C69.3152 13.988 69.0432 13.716 68.7072 13.54C68.3712 13.356 68.0072 13.264 67.6152 13.264C67.2152 13.264 66.8472 13.356 66.5112 13.54C66.1832 13.716 65.9192 13.988 65.7192 14.356C65.5192 14.724 65.4192 15.172 65.4192 15.7C65.4192 16.236 65.5152 16.688 65.7072 17.056C65.9072 17.424 66.1712 17.7 66.4992 17.884C66.8272 18.06 67.1872 18.148 67.5792 18.148ZM73.719 10.12V19H72.627V10.12H73.719ZM78.1481 19.108C77.6441 19.108 77.1921 19.024 76.7921 18.856C76.3921 18.68 76.0761 18.44 75.8441 18.136C75.6121 17.824 75.4841 17.468 75.4601 17.068H76.5881C76.6201 17.396 76.7721 17.664 77.0441 17.872C77.3241 18.08 77.6881 18.184 78.1361 18.184C78.5521 18.184 78.8801 18.092 79.1201 17.908C79.3601 17.724 79.4801 17.492 79.4801 17.212C79.4801 16.924 79.3521 16.712 79.0961 16.576C78.8401 16.432 78.4441 16.292 77.9081 16.156C77.4201 16.028 77.0201 15.9 76.7081 15.772C76.4041 15.636 76.1401 15.44 75.9161 15.184C75.7001 14.92 75.5921 14.576 75.5921 14.152C75.5921 13.816 75.6921 13.508 75.8921 13.228C76.0921 12.948 76.3761 12.728 76.7441 12.568C77.1121 12.4 77.5321 12.316 78.0041 12.316C78.7321 12.316 79.3201 12.5 79.7681 12.868C80.2161 13.236 80.4561 13.74 80.4881 14.38H79.3961C79.3721 14.036 79.2321 13.76 78.9761 13.552C78.7281 13.344 78.3921 13.24 77.9681 13.24C77.5761 13.24 77.2641 13.324 77.0321 13.492C76.8001 13.66 76.6841 13.88 76.6841 14.152C76.6841 14.368 76.7521 14.548 76.8881 14.692C77.0321 14.828 77.2081 14.94 77.4161 15.028C77.6321 15.108 77.9281 15.2 78.3041 15.304C78.7761 15.432 79.1601 15.56 79.4561 15.688C79.7521 15.808 80.0041 15.992 80.2121 16.24C80.4281 16.488 80.5401 16.812 80.5481 17.212C80.5481 17.572 80.4481 17.896 80.2481 18.184C80.0481 18.472 79.7641 18.7 79.3961 18.868C79.0361 19.028 78.6201 19.108 78.1481 19.108ZM83.6616 13.324V17.2C83.6616 17.52 83.7296 17.748 83.8656 17.884C84.0016 18.012 84.2376 18.076 84.5736 18.076H85.3776V19H84.3936C83.7856 19 83.3296 18.86 83.0256 18.58C82.7216 18.3 82.5696 17.84 82.5696 17.2V13.324H81.7176V12.424H82.5696V10.768H83.6616V12.424H85.3776V13.324H83.6616ZM87.5047 11.356C87.2967 11.356 87.1207 11.284 86.9767 11.14C86.8327 10.996 86.7607 10.82 86.7607 10.612C86.7607 10.404 86.8327 10.228 86.9767 10.084C87.1207 9.94 87.2967 9.868 87.5047 9.868C87.7047 9.868 87.8727 9.94 88.0087 10.084C88.1527 10.228 88.2247 10.404 88.2247 10.612C88.2247 10.82 88.1527 10.996 88.0087 11.14C87.8727 11.284 87.7047 11.356 87.5047 11.356ZM88.0327 12.424V19H86.9407V12.424H88.0327ZM89.7258 15.7C89.7258 15.02 89.8618 14.428 90.1338 13.924C90.4058 13.412 90.7818 13.016 91.2618 12.736C91.7498 12.456 92.3058 12.316 92.9298 12.316C93.7378 12.316 94.4018 12.512 94.9218 12.904C95.4498 13.296 95.7978 13.84 95.9658 14.536H94.7898C94.6778 14.136 94.4578 13.82 94.1298 13.588C93.8098 13.356 93.4098 13.24 92.9298 13.24C92.3058 13.24 91.8018 13.456 91.4178 13.888C91.0338 14.312 90.8418 14.916 90.8418 15.7C90.8418 16.492 91.0338 17.104 91.4178 17.536C91.8018 17.968 92.3058 18.184 92.9298 18.184C93.4098 18.184 93.8098 18.072 94.1298 17.848C94.4498 17.624 94.6698 17.304 94.7898 16.888H95.9658C95.7898 17.56 95.4378 18.1 94.9098 18.508C94.3818 18.908 93.7218 19.108 92.9298 19.108C92.3058 19.108 91.7498 18.968 91.2618 18.688C90.7818 18.408 90.4058 18.012 90.1338 17.5C89.8618 16.988 89.7258 16.388 89.7258 15.7ZM103.663 15.46C103.663 15.668 103.651 15.888 103.627 16.12H98.3709C98.4109 16.768 98.6309 17.276 99.0309 17.644C99.4389 18.004 99.9309 18.184 100.507 18.184C100.979 18.184 101.371 18.076 101.683 17.86C102.003 17.636 102.227 17.34 102.355 16.972H103.531C103.355 17.604 103.003 18.12 102.475 18.52C101.947 18.912 101.291 19.108 100.507 19.108C99.8829 19.108 99.3229 18.968 98.8269 18.688C98.3389 18.408 97.9549 18.012 97.6749 17.5C97.3949 16.98 97.2549 16.38 97.2549 15.7C97.2549 15.02 97.3909 14.424 97.6629 13.912C97.9349 13.4 98.3149 13.008 98.8029 12.736C99.2989 12.456 99.8669 12.316 100.507 12.316C101.131 12.316 101.683 12.452 102.163 12.724C102.643 12.996 103.011 13.372 103.267 13.852C103.531 14.324 103.663 14.86 103.663 15.46ZM102.535 15.232C102.535 14.816 102.443 14.46 102.259 14.164C102.075 13.86 101.823 13.632 101.503 13.48C101.191 13.32 100.843 13.24 100.459 13.24C99.9069 13.24 99.4349 13.416 99.0429 13.768C98.6589 14.12 98.4389 14.608 98.3829 15.232H102.535Z" fill="#232F3E"/>
<path d="M18.148 37L16.3 33.736H15.508V37H13.828V28.624H16.972C17.62 28.624 18.172 28.74 18.628 28.972C19.084 29.196 19.424 29.504 19.648 29.896C19.88 30.28 19.996 30.712 19.996 31.192C19.996 31.744 19.836 32.244 19.516 32.692C19.196 33.132 18.72 33.436 18.088 33.604L20.092 37H18.148ZM15.508 32.476H16.912C17.368 32.476 17.708 32.368 17.932 32.152C18.156 31.928 18.268 31.62 18.268 31.228C18.268 30.844 18.156 30.548 17.932 30.34C17.708 30.124 17.368 30.016 16.912 30.016H15.508V32.476ZM24.2995 37.108C23.7555 37.108 23.2675 37.012 22.8355 36.82C22.4035 36.62 22.0595 36.352 21.8035 36.016C21.5555 35.68 21.4195 35.308 21.3955 34.9H23.0875C23.1195 35.156 23.2435 35.368 23.4595 35.536C23.6835 35.704 23.9595 35.788 24.2875 35.788C24.6075 35.788 24.8555 35.724 25.0315 35.596C25.2155 35.468 25.3075 35.304 25.3075 35.104C25.3075 34.888 25.1955 34.728 24.9715 34.624C24.7555 34.512 24.4075 34.392 23.9275 34.264C23.4315 34.144 23.0235 34.02 22.7035 33.892C22.3915 33.764 22.1195 33.568 21.8875 33.304C21.6635 33.04 21.5515 32.684 21.5515 32.236C21.5515 31.868 21.6555 31.532 21.8635 31.228C22.0795 30.924 22.3835 30.684 22.7755 30.508C23.1755 30.332 23.6435 30.244 24.1795 30.244C24.9715 30.244 25.6035 30.444 26.0755 30.844C26.5475 31.236 26.8075 31.768 26.8555 32.44H25.2475C25.2235 32.176 25.1115 31.968 24.9115 31.816C24.7195 31.656 24.4595 31.576 24.1315 31.576C23.8275 31.576 23.5915 31.632 23.4235 31.744C23.2635 31.856 23.1835 32.012 23.1835 32.212C23.1835 32.436 23.2955 32.608 23.5195 32.728C23.7435 32.84 24.0915 32.956 24.5635 33.076C25.0435 33.196 25.4395 33.32 25.7515 33.448C26.0635 33.576 26.3315 33.776 26.5555 34.048C26.7875 34.312 26.9075 34.664 26.9155 35.104C26.9155 35.488 26.8075 35.832 26.5915 36.136C26.3835 36.44 26.0795 36.68 25.6795 36.856C25.2875 37.024 24.8275 37.108 24.2995 37.108ZM29.2786 37.084C28.9746 37.084 28.7226 36.992 28.5226 36.808C28.3306 36.616 28.2346 36.38 28.2346 36.1C28.2346 35.82 28.3306 35.588 28.5226 35.404C28.7226 35.212 28.9746 35.116 29.2786 35.116C29.5746 35.116 29.8186 35.212 30.0106 35.404C30.2026 35.588 30.2986 35.82 30.2986 36.1C30.2986 36.38 30.2026 36.616 30.0106 36.808C29.8186 36.992 29.5746 37.084 29.2786 37.084ZM34.5951 29.8V28.252H37.4871V37H35.7591V29.8H34.5951ZM45.2668 29.704H41.3788V31.756C41.5468 31.548 41.7868 31.38 42.0988 31.252C42.4108 31.116 42.7428 31.048 43.0948 31.048C43.7348 31.048 44.2588 31.188 44.6668 31.468C45.0748 31.748 45.3708 32.108 45.5548 32.548C45.7388 32.98 45.8308 33.444 45.8308 33.94C45.8308 34.86 45.5668 35.6 45.0388 36.16C44.5188 36.72 43.7748 37 42.8068 37C41.8948 37 41.1668 36.772 40.6228 36.316C40.0788 35.86 39.7708 35.264 39.6988 34.528H41.3308C41.4028 34.848 41.5628 35.104 41.8108 35.296C42.0668 35.488 42.3908 35.584 42.7828 35.584C43.2548 35.584 43.6108 35.436 43.8508 35.14C44.0908 34.844 44.2108 34.452 44.2108 33.964C44.2108 33.468 44.0868 33.092 43.8388 32.836C43.5988 32.572 43.2428 32.44 42.7708 32.44C42.4348 32.44 42.1548 32.524 41.9308 32.692C41.7068 32.86 41.5468 33.084 41.4508 33.364H39.8428V28.228H45.2668V29.704ZM47.3494 32.512C47.3494 31.128 47.5974 30.044 48.0934 29.26C48.5974 28.476 49.4294 28.084 50.5894 28.084C51.7494 28.084 52.5774 28.476 53.0734 29.26C53.5774 30.044 53.8294 31.128 53.8294 32.512C53.8294 33.904 53.5774 34.996 53.0734 35.788C52.5774 36.58 51.7494 36.976 50.5894 36.976C49.4294 36.976 48.5974 36.58 48.0934 35.788C47.5974 34.996 47.3494 33.904 47.3494 32.512ZM52.1734 32.512C52.1734 31.92 52.1334 31.424 52.0534 31.024C51.9814 30.616 51.8294 30.284 51.5974 30.028C51.3734 29.772 51.0374 29.644 50.5894 29.644C50.1414 29.644 49.8014 29.772 49.5694 30.028C49.3454 30.284 49.1934 30.616 49.1134 31.024C49.0414 31.424 49.0054 31.92 49.0054 32.512C49.0054 33.12 49.0414 33.632 49.1134 34.048C49.1854 34.456 49.3374 34.788 49.5694 35.044C49.8014 35.292 50.1414 35.416 50.5894 35.416C51.0374 35.416 51.3774 35.292 51.6094 35.044C51.8414 34.788 51.9934 34.456 52.0654 34.048C52.1374 33.632 52.1734 33.12 52.1734 32.512ZM55.3473 32.512C55.3473 31.128 55.5953 30.044 56.0913 29.26C56.5953 28.476 57.4273 28.084 58.5873 28.084C59.7473 28.084 60.5753 28.476 61.0713 29.26C61.5753 30.044 61.8273 31.128 61.8273 32.512C61.8273 33.904 61.5753 34.996 61.0713 35.788C60.5753 36.58 59.7473 36.976 58.5873 36.976C57.4273 36.976 56.5953 36.58 56.0913 35.788C55.5953 34.996 55.3473 33.904 55.3473 32.512ZM60.1713 32.512C60.1713 31.92 60.1313 31.424 60.0513 31.024C59.9793 30.616 59.8273 30.284 59.5953 30.028C59.3713 29.772 59.0353 29.644 58.5873 29.644C58.1393 29.644 57.7993 29.772 57.5673 30.028C57.3433 30.284 57.1913 30.616 57.1113 31.024C57.0393 31.424 57.0033 31.92 57.0033 32.512C57.0033 33.12 57.0393 33.632 57.1113 34.048C57.1833 34.456 57.3353 34.788 57.5673 35.044C57.7993 35.292 58.1393 35.416 58.5873 35.416C59.0353 35.416 59.3753 35.292 59.6073 35.044C59.8393 34.788 59.9913 34.456 60.0633 34.048C60.1353 33.632 60.1713 33.12 60.1713 32.512Z" fill="white"/>
</g>
<defs>
<clipPath id="clip0_0_677">
<rect width="126" height="49" fill="white"/>
</clipPath>
</defs>
</svg>
