<svg width="20" height="16" viewBox="0 0 20 16" fill="none" xmlns="http://www.w3.org/2000/svg">
<path d="M2.4 0C1.89609 0 1.41282 0.210714 1.0565 0.585786C0.700178 0.960859 0.5 1.46957 0.5 2V6C1.00391 6 1.48718 6.21071 1.8435 6.58579C2.19982 6.96086 2.4 7.46957 2.4 8C2.4 8.53043 2.19982 9.03914 1.8435 9.41421C1.48718 9.78929 1.00391 10 0.5 10V14C0.5 14.5304 0.700178 15.0391 1.0565 15.4142C1.41282 15.7893 1.89609 16 2.4 16H17.6C18.1039 16 18.5872 15.7893 18.9435 15.4142C19.2998 15.0391 19.5 14.5304 19.5 14V10C18.9961 10 18.5128 9.78929 18.1565 9.41421C17.8002 9.03914 17.6 8.53043 17.6 8C17.6 7.46957 17.8002 6.96086 18.1565 6.58579C18.5128 6.21071 18.9961 6 19.5 6V2C19.5 1.46957 19.2998 0.960859 18.9435 0.585786C18.5872 0.210714 18.1039 0 17.6 0H2.4ZM13.325 3L14.75 4.5L6.675 13L5.25 11.5L13.325 3ZM6.9695 3.04C7.9005 3.04 8.651 3.83 8.651 4.81C8.651 5.27943 8.47384 5.72964 8.1585 6.06158C7.84316 6.39352 7.41546 6.58 6.9695 6.58C6.0385 6.58 5.288 5.79 5.288 4.81C5.288 4.34057 5.46516 3.89036 5.7805 3.55842C6.09584 3.22648 6.52354 3.04 6.9695 3.04ZM13.0305 9.42C13.9615 9.42 14.712 10.21 14.712 11.19C14.712 11.6594 14.5348 12.1096 14.2195 12.4416C13.9042 12.7735 13.4765 12.96 13.0305 12.96C12.0995 12.96 11.349 12.17 11.349 11.19C11.349 10.7206 11.5262 10.2704 11.8415 9.93842C12.1568 9.60648 12.5845 9.42 13.0305 9.42Z" fill="#FFA500"/>
</svg>
