<svg width="22" height="15" viewBox="0 0 22 15" fill="none" xmlns="http://www.w3.org/2000/svg">
<path d="M0 0V1.36364H13.0625V11.5909H8.83025C8.52363 10.4189 7.46075 9.54545 6.1875 9.54545C4.91425 9.54545 3.85138 10.4189 3.54475 11.5909H2.75V8.18182H1.375V12.9545H3.54475C3.85138 14.1266 4.91425 15 6.1875 15C7.46075 15 8.52363 14.1266 8.83025 12.9545H14.5448C14.8514 14.1266 15.9143 15 17.1875 15C18.4608 15 19.5236 14.1266 19.8302 12.9545H22V7.39364L21.9567 7.28659L20.5817 3.19568L20.4325 2.72727H14.4375V0H0ZM0.6875 2.72727V4.09091H6.875V2.72727H0.6875ZM14.4375 4.09091H19.4432L20.625 7.58523V11.5909H19.8302C19.5236 10.4189 18.4608 9.54545 17.1875 9.54545C15.9143 9.54545 14.8514 10.4189 14.5448 11.5909H14.4375V4.09091ZM1.375 5.45455V6.81818H5.5V5.45455H1.375ZM6.1875 10.9091C6.95544 10.9091 7.5625 11.5111 7.5625 12.2727C7.5625 13.0343 6.95544 13.6364 6.1875 13.6364C5.41956 13.6364 4.8125 13.0343 4.8125 12.2727C4.8125 11.5111 5.41956 10.9091 6.1875 10.9091ZM17.1875 10.9091C17.9554 10.9091 18.5625 11.5111 18.5625 12.2727C18.5625 13.0343 17.9554 13.6364 17.1875 13.6364C16.4196 13.6364 15.8125 13.0343 15.8125 12.2727C15.8125 11.5111 16.4196 10.9091 17.1875 10.9091Z" fill="#4D4D4D"/>
</svg>
