<svg width="19" height="10" viewBox="0 0 19 10" fill="none" xmlns="http://www.w3.org/2000/svg">
<path d="M18.9003 6.54527C18.9966 6.72709 19.0228 6.94294 18.9732 7.14568C18.9235 7.34842 18.8021 7.52158 18.6355 7.62735C18.5254 7.69987 18.3989 7.73768 18.2702 7.73655C18.1409 7.73781 18.0135 7.70171 17.9012 7.63195C17.7889 7.56218 17.6957 7.46124 17.631 7.33946L15.9507 4.18255C14.9648 4.90352 13.8798 5.44971 12.7363 5.80072L13.266 9.06682C13.298 9.27456 13.2537 9.48766 13.1427 9.66031C13.0317 9.83295 12.8629 9.95136 12.6724 9.99007H12.5446C12.3726 9.99062 12.206 9.92521 12.074 9.80536C11.9421 9.68552 11.8532 9.51891 11.8231 9.33486L11.3026 6.11839C10.707 6.21493 10.1058 6.26469 9.50366 6.2673C8.89869 6.26761 8.29447 6.22116 7.69556 6.12832L7.17504 9.34479C7.14495 9.52883 7.05611 9.69544 6.92415 9.81529C6.79219 9.93514 6.62558 10.0005 6.45363 10H6.32578C6.13533 9.96128 5.96645 9.84288 5.85546 9.67023C5.74446 9.49759 5.70021 9.28449 5.73221 9.07675L6.27099 5.80072C5.12387 5.45197 4.03557 4.90566 3.04746 4.18255L1.35807 7.35931C1.29281 7.47833 1.20069 7.57726 1.09042 7.64675C0.980159 7.71624 0.855405 7.75398 0.727973 7.75641C0.599954 7.75592 0.474301 7.71887 0.363602 7.64896C0.252903 7.57906 0.161045 7.47875 0.0972311 7.35811C0.0334169 7.23746 -0.000113117 7.10069 2.86708e-07 6.96152C0.00011369 6.82235 0.0338665 6.68565 0.0978773 6.56512L1.87858 3.20967C1.25632 2.62952 0.684679 1.98814 0.170932 1.29369C0.110218 1.21321 0.0648468 1.1204 0.0374617 1.02067C0.0100765 0.920941 0.00122575 0.816281 0.0114252 0.712793C0.0216246 0.609306 0.0506702 0.50906 0.096869 0.417899C0.143068 0.326739 0.205496 0.246486 0.280514 0.181821C0.353971 0.115261 0.438869 0.0652424 0.530268 0.0346732C0.621668 0.0041039 0.717746 -0.00640593 0.812916 0.00375538C0.908086 0.0139167 1.00045 0.0445461 1.08463 0.0938623C1.16881 0.143179 1.24314 0.210198 1.30328 0.291022C1.8749 1.06576 2.52767 1.7654 3.24836 2.37577H3.25749C5.04071 3.88798 7.24215 4.69971 9.50366 4.67892C12.1793 4.67892 14.2339 3.6564 15.7407 2.3857H15.759C16.4797 1.77533 17.1324 1.07569 17.704 0.30095C17.7635 0.219396 17.8373 0.151529 17.9212 0.101305C18.0051 0.0510817 18.0973 0.0195059 18.1925 0.00841793C18.2877 -0.00267005 18.3839 0.00695181 18.4757 0.0367227C18.5674 0.0664935 18.6528 0.115818 18.7268 0.181821C18.8018 0.246486 18.8643 0.326739 18.9105 0.417899C18.9566 0.50906 18.9857 0.609306 18.9959 0.712793C19.0061 0.816281 18.9972 0.920941 18.9699 1.02067C18.9425 1.1204 18.8971 1.21321 18.8364 1.29369C18.3226 1.98814 17.751 2.62952 17.1287 3.20967L18.9003 6.54527Z" fill="#949494"/>
</svg>
