<svg width="16" height="16" viewBox="0 0 16 16" fill="none" xmlns="http://www.w3.org/2000/svg">
<path d="M7.18054 14.0549L7.17983 14.0542C5.11017 12.1365 3.43202 10.5786 2.26545 9.12023C1.10468 7.66915 0.5 6.3759 0.5 4.99591C0.5 2.73655 2.22166 1 4.4 1C5.6368 1 6.83521 1.59095 7.61714 2.52186L8 2.97767L8.38286 2.52186C9.16479 1.59095 10.3632 1 11.6 1C13.7783 1 15.5 2.73655 15.5 4.99591C15.5 6.3759 14.8953 7.66915 13.7346 9.12023C12.568 10.5786 10.8898 12.1365 8.82017 14.0542L8.81946 14.0549L8 14.8171L7.18054 14.0549Z" stroke="#8E8E8E"/>
</svg>
