<svg width="16" height="19" viewBox="0 0 16 19" fill="none" xmlns="http://www.w3.org/2000/svg">
<path d="M7.57895 19V15.9721C3.36 15.7534 0 12.2545 0 7.99026C0 3.583 3.58737 0 8 0C12.4126 0 16 3.583 16 7.99026C16 12.1536 13.1032 16.3422 8.78316 18.4197L7.57895 19ZM8 1.68216C4.51368 1.68216 1.68421 4.50819 1.68421 7.99026C1.68421 11.4723 4.51368 14.2984 8 14.2984H9.26316V16.2328C12.3284 14.2984 14.3158 11.1191 14.3158 7.99026C14.3158 4.50819 11.4863 1.68216 8 1.68216ZM7.15789 11.3546H8.8421V13.0367H7.15789V11.3546ZM8.8421 10.093H7.15789C7.15789 7.35945 9.68421 7.56972 9.68421 5.88756C9.68421 4.96237 8.92632 4.2054 8 4.2054C7.07368 4.2054 6.31579 4.96237 6.31579 5.88756H4.63158C4.63158 4.02877 6.13895 2.52324 8 2.52324C9.86105 2.52324 11.3684 4.02877 11.3684 5.88756C11.3684 7.99026 8.8421 8.20053 8.8421 10.093Z" fill="#4D4D4D"/>
</svg>
