<svg width="16" height="16" viewBox="0 0 16 16" fill="none" xmlns="http://www.w3.org/2000/svg">
<path d="M1.33335 15.9999H5.33334C5.51016 15.9999 5.67972 15.9315 5.80475 15.8098M1.33335 15.9999H14.6667H10.6667C10.4899 15.9999 10.3203 15.9315 10.1953 15.8098C10.0702 15.688 10 15.5229 10 15.3508V11.4562C10 11.284 9.92977 11.1189 9.80474 10.9972C9.67972 10.8755 9.51015 10.8071 9.33334 10.8071H6.66668C6.48987 10.8071 6.3203 10.8755 6.19527 10.9972C6.07025 11.1189 6.00001 11.284 6.00001 11.4562V15.3508C6.00001 15.5229 5.92977 15.688 5.80475 15.8098M1.33335 15.9999C1.1442 16.0006 0.957098 15.9618 0.784612 15.8863C0.612125 15.8107 0.458256 15.7 0.33335 15.5617L1.33335 15.9999ZM5.80475 15.8098L5.45595 15.4515C5.42565 15.481 5.38179 15.4999 5.33334 15.4999L1.33335 15.4999L1.33151 15.4999C1.21174 15.5003 1.09363 15.4758 0.985266 15.4283C0.878416 15.3815 0.783957 15.3137 0.707576 15.2301M5.80475 15.8098L5.45595 15.4515C5.48579 15.4225 5.50001 15.386 5.50001 15.3508V11.4562C5.50001 11.1471 5.62626 10.8534 5.84647 10.639C6.06623 10.425 6.3615 10.3071 6.66668 10.3071H9.33334C9.63851 10.3071 9.93379 10.425 10.1535 10.639C10.3738 10.8534 10.5 11.1471 10.5 11.4562V15.3508C10.5 15.386 10.5142 15.4225 10.5441 15.4515C10.5744 15.481 10.6182 15.4999 10.6667 15.4999H14.6667H14.6734L14.6734 15.4999C14.8104 15.5018 14.9449 15.4688 15.0635 15.4052L15.0658 15.404C15.1991 15.3333 15.3087 15.2299 15.3845 15.1061C15.46 14.9826 15.4995 14.8428 15.5 14.7011M0.707576 15.2301L16 7.19647L15.5 7.19664V14.7011M0.707576 15.2301C0.571492 15.0718 0.499004 14.8739 0.500017 14.6717V14.6692L0.500017 7.19664C0.500017 7.19659 0.500017 7.19654 0.500017 7.1965C0.500072 7.08779 0.523329 6.9799 0.56875 6.87955C0.614117 6.77931 0.680818 6.68834 0.7654 6.61287C0.765573 6.61272 0.765747 6.61257 0.76592 6.61241L7.43134 0.71483L7.43258 0.713723C7.58559 0.577432 7.78787 0.5 8.00001 0.5C8.21214 0.5 8.41443 0.577432 8.56743 0.713725L8.56868 0.714828L15.2341 6.61241C15.2343 6.61257 15.2345 6.61273 15.2346 6.61289C15.3192 6.68836 15.3859 6.77932 15.4313 6.87954C15.4767 6.9799 15.4999 7.08778 15.5 7.19647L0.707576 15.2301ZM15.5 14.7011V14.7017H16L15.5 14.7004C15.5 14.7006 15.5 14.7009 15.5 14.7011Z" stroke="#232F3E"/>
</svg>
