<svg width="127" height="39" viewBox="0 0 127 39" fill="none" xmlns="http://www.w3.org/2000/svg">
<path d="M110.256 19C109.529 19 108.965 18.8175 108.564 18.4525C108.188 18.0633 108 17.5158 108 16.8102V16.1898C108 15.4842 108.188 14.9489 108.564 14.5839C108.965 14.1946 109.529 14 110.256 14H110.744C111.471 14 112.023 14.1946 112.398 14.5839C112.799 14.9489 113 15.4842 113 16.1898V16.8102C113 17.5158 112.799 18.0633 112.398 18.4525C112.023 18.8175 111.471 19 110.744 19H110.256Z" fill="#FFA500"/>
<path fill-rule="evenodd" clip-rule="evenodd" d="M32 30.9665C41.0415 33.5139 53.4249 35.0847 67.0843 35.0847C94.7695 35.0847 117.213 28.6323 117.213 20.6728C117.213 18.3206 115.253 16.1 111.776 14.1387C121.06 16.7545 126.821 20.4001 126.821 24.4325C126.821 32.3919 104.377 38.8444 76.6923 38.8444C57.1887 38.8444 40.2866 35.642 32 30.9665Z" fill="#232F3E"/>
<path d="M0.936 22.712C1.48 22.28 1.728 22.08 1.68 22.112C3.248 20.816 4.48 19.752 5.376 18.92C6.288 18.088 7.056 17.216 7.68 16.304C8.304 15.392 8.616 14.504 8.616 13.64C8.616 12.984 8.464 12.472 8.16 12.104C7.856 11.736 7.4 11.552 6.792 11.552C6.184 11.552 5.704 11.784 5.352 12.248C5.016 12.696 4.848 13.336 4.848 14.168H0.888C0.92 12.808 1.208 11.672 1.752 10.76C2.312 9.848 3.04 9.176 3.936 8.744C4.848 8.312 5.856 8.096 6.96 8.096C8.864 8.096 10.296 8.584 11.256 9.56C12.232 10.536 12.72 11.808 12.72 13.376C12.72 15.088 12.136 16.68 10.968 18.152C9.8 19.608 8.312 21.032 6.504 22.424H12.984V25.76H0.936V22.712ZM14.3589 12.296V8.48H21.0069V26H16.7349V12.296H14.3589ZM29.6704 26.192C28.5024 26.192 27.4624 25.992 26.5504 25.592C25.6384 25.192 24.9184 24.648 24.3904 23.96C23.8624 23.256 23.5664 22.472 23.5024 21.608H27.5584C27.6064 22.072 27.8224 22.448 28.2064 22.736C28.5904 23.024 29.0624 23.168 29.6224 23.168C30.1344 23.168 30.5264 23.072 30.7984 22.88C31.0864 22.672 31.2304 22.408 31.2304 22.088C31.2304 21.704 31.0304 21.424 30.6304 21.248C30.2304 21.056 29.5824 20.848 28.6864 20.624C27.7264 20.4 26.9264 20.168 26.2864 19.928C25.6464 19.672 25.0944 19.28 24.6304 18.752C24.1664 18.208 23.9344 17.48 23.9344 16.568C23.9344 15.8 24.1424 15.104 24.5584 14.48C24.9904 13.84 25.6144 13.336 26.4304 12.968C27.2624 12.6 28.2464 12.416 29.3824 12.416C31.0624 12.416 32.3824 12.832 33.3424 13.664C34.3184 14.496 34.8784 15.6 35.0224 16.976H31.2304C31.1664 16.512 30.9584 16.144 30.6064 15.872C30.2704 15.6 29.8224 15.464 29.2624 15.464C28.7824 15.464 28.4144 15.56 28.1584 15.752C27.9024 15.928 27.7744 16.176 27.7744 16.496C27.7744 16.88 27.9744 17.168 28.3744 17.36C28.7904 17.552 29.4304 17.744 30.2944 17.936C31.2864 18.192 32.0944 18.448 32.7184 18.704C33.3424 18.944 33.8864 19.344 34.3504 19.904C34.8304 20.448 35.0784 21.184 35.0944 22.112C35.0944 22.896 34.8704 23.6 34.4224 24.224C33.9904 24.832 33.3584 25.312 32.5264 25.664C31.7104 26.016 30.7584 26.192 29.6704 26.192ZM45.0692 22.52V26H42.9812C41.4932 26 40.3332 25.64 39.5012 24.92C38.6692 24.184 38.2532 22.992 38.2532 21.344V16.016H36.6212V12.608H38.2532V9.344H42.3572V12.608H45.0452V16.016H42.3572V21.392C42.3572 21.792 42.4532 22.08 42.6452 22.256C42.8372 22.432 43.1572 22.52 43.6052 22.52H45.0692ZM51.7451 17.552C51.7451 15.888 52.1051 14.408 52.8251 13.112C53.5451 11.8 54.5451 10.784 55.8251 10.064C57.1211 9.328 58.5851 8.96 60.2171 8.96C62.2171 8.96 63.9291 9.488 65.3531 10.544C66.7771 11.6 67.7291 13.04 68.2091 14.864H63.6971C63.3611 14.16 62.8811 13.624 62.2571 13.256C61.6491 12.888 60.9531 12.704 60.1691 12.704C58.9051 12.704 57.8811 13.144 57.0971 14.024C56.3131 14.904 55.9211 16.08 55.9211 17.552C55.9211 19.024 56.3131 20.2 57.0971 21.08C57.8811 21.96 58.9051 22.4 60.1691 22.4C60.9531 22.4 61.6491 22.216 62.2571 21.848C62.8811 21.48 63.3611 20.944 63.6971 20.24H68.2091C67.7291 22.064 66.7771 23.504 65.3531 24.56C63.9291 25.6 62.2171 26.12 60.2171 26.12C58.5851 26.12 57.1211 25.76 55.8251 25.04C54.5451 24.304 53.5451 23.288 52.8251 21.992C52.1051 20.696 51.7451 19.216 51.7451 17.552ZM87.8104 12.464C89.4744 12.464 90.7944 12.968 91.7704 13.976C92.7624 14.984 93.2584 16.384 93.2584 18.176V26H89.1784V18.728C89.1784 17.864 88.9464 17.2 88.4824 16.736C88.0344 16.256 87.4104 16.016 86.6104 16.016C85.8104 16.016 85.1784 16.256 84.7144 16.736C84.2664 17.2 84.0424 17.864 84.0424 18.728V26H79.9624V18.728C79.9624 17.864 79.7304 17.2 79.2664 16.736C78.8184 16.256 78.1944 16.016 77.3944 16.016C76.5944 16.016 75.9624 16.256 75.4984 16.736C75.0504 17.2 74.8264 17.864 74.8264 18.728V26H70.7224V12.608H74.8264V14.288C75.2424 13.728 75.7864 13.288 76.4584 12.968C77.1304 12.632 77.8904 12.464 78.7384 12.464C79.7464 12.464 80.6424 12.68 81.4264 13.112C82.2264 13.544 82.8504 14.16 83.2984 14.96C83.7624 14.224 84.3944 13.624 85.1944 13.16C85.9944 12.696 86.8664 12.464 87.8104 12.464ZM101.577 26.192C100.409 26.192 99.3686 25.992 98.4566 25.592C97.5446 25.192 96.8246 24.648 96.2966 23.96C95.7686 23.256 95.4726 22.472 95.4086 21.608H99.4646C99.5126 22.072 99.7286 22.448 100.113 22.736C100.497 23.024 100.969 23.168 101.529 23.168C102.041 23.168 102.433 23.072 102.705 22.88C102.993 22.672 103.137 22.408 103.137 22.088C103.137 21.704 102.937 21.424 102.537 21.248C102.137 21.056 101.489 20.848 100.593 20.624C99.6326 20.4 98.8326 20.168 98.1926 19.928C97.5526 19.672 97.0006 19.28 96.5366 18.752C96.0726 18.208 95.8406 17.48 95.8406 16.568C95.8406 15.8 96.0486 15.104 96.4646 14.48C96.8966 13.84 97.5206 13.336 98.3366 12.968C99.1686 12.6 100.153 12.416 101.289 12.416C102.969 12.416 104.289 12.832 105.249 13.664C106.225 14.496 106.785 15.6 106.929 16.976H103.137C103.073 16.512 102.865 16.144 102.513 15.872C102.177 15.6 101.729 15.464 101.169 15.464C100.689 15.464 100.321 15.56 100.065 15.752C99.8086 15.928 99.6806 16.176 99.6806 16.496C99.6806 16.88 99.8806 17.168 100.281 17.36C100.697 17.552 101.337 17.744 102.201 17.936C103.193 18.192 104.001 18.448 104.625 18.704C105.249 18.944 105.793 19.344 106.257 19.904C106.737 20.448 106.985 21.184 107.001 22.112C107.001 22.896 106.777 23.6 106.329 24.224C105.897 24.832 105.265 25.312 104.433 25.664C103.617 26.016 102.665 26.192 101.577 26.192Z" fill="#232F3E"/>
</svg>
