<svg width="14" height="18" viewBox="0 0 14 18" fill="none" xmlns="http://www.w3.org/2000/svg">
<path d="M13.7049 9.69231L0 0V18H13.7049L5.48169 9.69231H13.7049Z" fill="#22408B"/>
<path d="M11.7692 8.99996L0.692322 1.52026V17.3076H11.7692L3.85894 8.99996H11.7692Z" fill="#DD2F45"/>
<path d="M4.35535 13.1823L4.76104 12.6174L4.06873 12.6852L4.13796 11.9929L3.57235 12.3986L3.28573 11.7644L2.99911 12.3986L2.4335 11.9929L2.50204 12.6852L1.80973 12.6174L2.21542 13.1823L1.58127 13.4689L2.21542 13.7555L1.80973 14.3204L2.50204 14.2526L2.4335 14.9449L2.99911 14.5392L3.28573 15.1734L3.57235 14.5392L4.13796 14.9449L4.06873 14.2526L4.76104 14.3204L4.35535 13.7555L4.9895 13.4689L4.35535 13.1823ZM3.28504 8.23435L3.28573 8.23574L3.28642 8.23435L3.29888 8.23574C4.31519 8.23574 5.14042 7.45343 5.22627 6.45859C4.98436 6.90876 4.59424 7.26145 4.12204 7.45689L4.00088 7.28797L4.42388 7.09689L4.00088 6.90582L4.27158 6.52851L3.80911 6.5742L3.8555 6.11174L3.4775 6.38243L3.28642 5.95874L3.09535 6.38243L2.71735 6.11174L2.76373 6.5742L2.30127 6.52851L2.57196 6.90582L2.14896 7.09689L2.57196 7.28797L2.45635 7.44928C1.99292 7.25178 1.61056 6.90238 1.37219 6.45859C1.41192 6.9399 1.6302 7.38896 1.98414 7.71754C2.33808 8.04612 2.8021 8.23046 3.28504 8.23435Z" fill="white"/>
</svg>
