<svg width="32" height="36" viewBox="0 0 32 36" fill="none" xmlns="http://www.w3.org/2000/svg">
<g opacity="0.1">
<path d="M22.6926 21.8847C24.1826 20.3104 25.1787 18.3339 25.5576 16.1996C25.9366 14.0653 25.6818 11.8667 24.8248 9.8756C23.9678 7.88452 22.5461 6.1882 20.7355 4.99631C18.9249 3.80443 16.8047 3.16923 14.637 3.16923C12.4694 3.16923 10.3492 3.80443 8.53857 4.99631C6.72796 6.1882 5.3063 7.88452 4.4493 9.8756C3.5923 11.8667 3.33753 14.0653 3.71648 16.1996C4.09543 18.3339 5.09149 20.3104 6.58154 21.8847C7.43663 20.5203 8.62451 19.3955 10.0336 18.6161C11.4427 17.8367 13.0268 17.4283 14.637 17.4292C16.2473 17.4283 17.8314 17.8367 19.2405 18.6161C20.6496 19.3955 21.8375 20.5203 22.6926 21.8847ZM14.637 34.4275L4.55341 24.3438C2.55908 22.3495 1.20093 19.8085 0.650711 17.0423C0.100487 14.2761 0.382899 11.4088 1.46224 8.8031C2.54157 6.19737 4.36935 3.97023 6.71445 2.40329C9.05955 0.83635 11.8166 0 14.637 0C17.4575 0 20.2145 0.83635 22.5596 2.40329C24.9047 3.97023 26.7325 6.19737 27.8119 8.8031C28.8912 11.4088 29.1736 14.2761 28.6234 17.0423C28.0732 19.8085 26.715 22.3495 24.7207 24.3438L14.637 34.4275ZM14.637 15.8447C13.3764 15.8447 12.1673 15.3439 11.2759 14.4524C10.3844 13.561 9.8836 12.3519 9.8836 11.0912C9.8836 9.83055 10.3844 8.6215 11.2759 7.73005C12.1673 6.83861 13.3764 6.3378 14.637 6.3378C15.8977 6.3378 17.1068 6.83861 17.9982 7.73005C18.8897 8.6215 19.3905 9.83055 19.3905 11.0912C19.3905 12.3519 18.8897 13.561 17.9982 14.4524C17.1068 15.3439 15.8977 15.8447 14.637 15.8447Z" fill="black"/>
<path d="M24.1439 35.2419L27.503 31.8812M30.8653 28.5205L27.503 31.8812M27.503 31.8812L24.1439 28.5205M27.503 31.8812L30.8653 35.2419" stroke="black" stroke-width="1.5" stroke-linecap="round" stroke-linejoin="round"/>
</g>
</svg>
