<svg width="14" height="14" viewBox="0 0 14 14" fill="none" xmlns="http://www.w3.org/2000/svg">
<path fill-rule="evenodd" clip-rule="evenodd" d="M9.33333 3.87037C9.33333 5.19994 8.28866 6.27778 7 6.27778C5.71134 6.27778 4.66667 5.19994 4.66667 3.87037C4.66667 2.5408 5.71134 1.46296 7 1.46296C8.28866 1.46296 9.33333 2.5408 9.33333 3.87037ZM8.96023 6.56671C9.75354 5.95181 10.2667 4.97292 10.2667 3.87037C10.2667 2.00898 8.80412 0.5 7 0.5C5.19588 0.5 3.73333 2.00898 3.73333 3.87037C3.73333 4.97292 4.24646 5.95181 5.03977 6.56671C3.9203 6.90367 2.88964 7.52706 2.05024 8.39311C0.959481 9.51852 0.265861 10.9771 0.0624634 12.537C0.0210775 12.8545 0 13.1761 0 13.5H0.936637C0.936637 11.8409 1.57546 10.2496 2.71256 9.07645C3.84966 7.90325 5.3919 7.24415 7 7.24415C8.6081 7.24415 10.1503 7.90325 11.2874 9.07645C12.4245 10.2496 13.0634 11.8409 13.0634 13.5H14C14 13.1761 13.9789 12.8545 13.9375 12.537C13.7341 10.9771 13.0405 9.51852 11.9498 8.39311C11.1104 7.52706 10.0797 6.90367 8.96023 6.56671Z" fill="#8E8E8E"/>
</svg>
