<svg width="20" height="19" viewBox="0 0 20 19" fill="none" xmlns="http://www.w3.org/2000/svg">
<path fill-rule="evenodd" clip-rule="evenodd" d="M1.19562 0.725882C1.64102 0.261107 2.24511 0 2.875 0H17.125C17.7549 0 18.359 0.261107 18.8044 0.725882C19.2498 1.19066 19.5 1.82102 19.5 2.47831V12.3916C19.5 13.0489 19.2498 13.6792 18.8044 14.144C18.359 14.6088 17.7549 14.8699 17.125 14.8699H14.1562C13.9719 14.8699 13.7901 14.9147 13.6252 15.0007C13.4603 15.0867 13.3169 15.2117 13.2062 15.3656L10.95 18.5043C10.8394 18.6582 10.696 18.7831 10.5311 18.8692C10.3662 18.9552 10.1844 19 10 19C9.81565 19 9.63382 18.9552 9.46893 18.8692C9.30404 18.7831 9.16061 18.6582 9.05 18.5043L6.79375 15.3656C6.68314 15.2117 6.53971 15.0867 6.37482 15.0007C6.20992 14.9147 6.0281 14.8699 5.84375 14.8699H2.875C2.24511 14.8699 1.64102 14.6088 1.19562 14.144C0.750223 13.6792 0.5 13.0489 0.5 12.3916V2.47831C0.5 1.82102 0.750223 1.19066 1.19562 0.725882ZM4.51925 3.65375C4.31745 3.65375 4.15386 3.81734 4.15386 4.01914C4.15386 4.22093 4.31745 4.38452 4.51925 4.38452H16.2116C16.4133 4.38452 16.5769 4.22093 16.5769 4.01914C16.5769 3.81734 16.4133 3.65375 16.2116 3.65375H4.51925ZM4.15386 7.673C4.15386 7.4712 4.31745 7.30762 4.51925 7.30762H16.2116C16.4133 7.30762 16.5769 7.4712 16.5769 7.673C16.5769 7.8748 16.4133 8.03838 16.2116 8.03838H4.51925C4.31745 8.03838 4.15386 7.8748 4.15386 7.673ZM4.51925 10.9615C4.31745 10.9615 4.15386 11.1251 4.15386 11.3269C4.15386 11.5287 4.31745 11.6922 4.51925 11.6922H16.2116C16.4133 11.6922 16.5769 11.5287 16.5769 11.3269C16.5769 11.1251 16.4133 10.9615 16.2116 10.9615H4.51925Z" fill="#FFA500"/>
</svg>
