<svg width="15" height="16" viewBox="0 0 15 16" fill="none" xmlns="http://www.w3.org/2000/svg">
<path d="M6.19025 3.02115C6.80506 2.07123 8.19494 2.07123 8.80975 3.02115C9.16166 3.56488 9.81291 3.83464 10.4462 3.699C11.5527 3.46204 12.5355 4.44484 12.2985 5.55127C12.1629 6.18458 12.4326 6.83583 12.9763 7.18775C13.9263 7.80256 13.9263 9.19244 12.9763 9.80725C12.4326 10.1592 12.1629 10.8104 12.2985 11.4437C12.5355 12.5502 11.5527 13.533 10.4462 13.296C9.81291 13.1604 9.16166 13.4301 8.80975 13.9738C8.19494 14.9238 6.80506 14.9238 6.19025 13.9738C5.83834 13.4301 5.18709 13.1604 4.55377 13.296C3.44734 13.533 2.46454 12.5502 2.70151 11.4437C2.83714 10.8104 2.56738 10.1592 2.02366 9.80725C1.07373 9.19244 1.07373 7.80256 2.02366 7.18775C2.56738 6.83583 2.83714 6.18458 2.70151 5.55127C2.46454 4.44484 3.44734 3.46204 4.55377 3.699C5.18709 3.83464 5.83834 3.56488 6.19025 3.02115Z" fill="#FFA500"/>
<path d="M6.33333 10.9975L4 8.86984L4.81667 8.12516L6.33333 9.50814L10.1833 5.9975L11 6.74218L6.33333 10.9975Z" fill="white"/>
</svg>
