<svg width="22" height="17" viewBox="0 0 22 17" fill="none" xmlns="http://www.w3.org/2000/svg">
<path d="M16.7273 13.2222V10.3889H13.8636V8.5H16.7273V5.66667H18.6364V8.5H21.5V10.3889H18.6364V13.2222H16.7273ZM10.0455 17L7.01477 14.3083C5.86932 13.2852 4.88709 12.3722 4.06809 11.5694C3.24845 10.7667 2.57232 10.0111 2.03968 9.30278C1.50641 8.59444 1.11664 7.90972 0.870364 7.24861C0.623455 6.5875 0.5 5.89491 0.5 5.17083C0.5 3.6912 1.00114 2.45933 2.00341 1.47522C3.00568 0.491741 4.25455 0 5.75 0C6.57727 0 7.36477 0.169055 8.1125 0.507167C8.86023 0.845907 9.50455 1.33009 10.0455 1.95972C10.5864 1.33009 11.2307 0.845907 11.9784 0.507167C12.7261 0.169055 13.5136 0 14.3409 0C15.6932 0 16.8265 0.405167 17.741 1.2155C18.6561 2.02646 19.225 2.975 19.4477 4.06111C19.1614 3.95093 18.875 3.86813 18.5886 3.81272C18.3023 3.75794 18.0239 3.73056 17.7534 3.73056C16.1466 3.73056 14.7784 4.28526 13.6489 5.39467C12.5193 6.5047 11.9545 7.85463 11.9545 9.44444C11.9545 10.263 12.1216 11.038 12.4557 11.7697C12.7898 12.5019 13.2591 13.1278 13.8636 13.6472C13.5614 13.9148 13.1675 14.2573 12.6819 14.6748C12.197 15.0916 11.7795 15.4574 11.4295 15.7722L10.0455 17Z" fill="#FFA500"/>
</svg>
