<svg width="70" height="70" viewBox="0 0 70 70" fill="none" xmlns="http://www.w3.org/2000/svg">
<g clip-path="url(#clip0_1629_2872)">
<path d="M68.3725 22.2693L35.7478 11.7903C35.2741 11.624 34.7583 11.6207 34.2825 11.7809L1.62283 22.2704C0.655234 22.5825 -0.000440941 23.4833 2.22487e-07 24.4999V55.6383C0.000723894 57.1313 0.948507 58.4595 2.36017 58.9458L33.8485 69.8028C34.2183 69.9337 34.6077 70.0004 35 69.9999C35.3872 69.9999 35.7715 69.9336 36.1363 69.8039L67.6363 58.9423C69.0482 58.4577 69.9973 57.131 70 55.6383V24.4999C69.9999 23.4817 69.3421 22.5801 68.3725 22.2693ZM33.8333 14.3779V30.3333C33.8333 30.9776 34.3557 31.4999 35 31.4999C35.6443 31.4999 36.1667 30.9776 36.1667 30.3333V14.3756L67.6667 24.4906V24.4999V24.5093H67.6597L35 34.9999L2.34033 24.4906L33.8333 14.3779ZM2.33333 55.6383V26.9581L33.8333 37.0754V67.3294L3.12317 56.7408C2.65139 56.5798 2.33403 56.1368 2.33333 55.6383ZM66.878 56.7408L36.1667 67.3306V37.0754L67.6667 26.9569V55.6383C67.6661 56.1365 67.3493 56.5794 66.878 56.7408Z" fill="#7B8698"/>
<path d="M29.8796 38.2566L7.71291 31.1399C7.00363 30.9123 6.22831 31.0371 5.62622 31.4757C5.02413 31.9143 4.66764 32.614 4.66675 33.3589V53.1421C4.66712 54.1372 5.29862 55.0226 6.23941 55.3471L28.4061 62.9911C29.1194 63.237 29.9076 63.1229 30.5219 62.6847C31.1361 62.2465 31.5006 61.5383 31.5001 60.7837V40.4837C31.5047 39.467 30.8484 38.565 29.8796 38.2566ZM7.00008 41.2677L29.1667 48.3844V53.8421L7.00008 46.7254V41.2677ZM29.1667 40.4837V45.9426L7.00008 38.8259V33.3589L29.1667 40.4837ZM7.00008 53.1421V49.1754L29.1667 56.2921V60.7837L7.00008 53.1421Z" fill="#7B8698"/>
<path d="M64.3745 31.4716C63.7715 31.0348 62.9969 30.9101 62.2873 31.1356L40.1206 38.2523C39.1505 38.5612 38.494 39.4649 38.5001 40.483V60.783C38.5004 61.5371 38.8651 62.2446 39.4793 62.6823C40.0934 63.1199 40.8812 63.2338 41.5941 62.988L63.7608 55.344C64.7008 55.0198 65.3321 54.1356 65.3335 53.1413V33.3581C65.3317 32.6127 64.9757 31.9124 64.3745 31.4716ZM63.0001 33.3581V41.4758L57.1376 43.3553C55.7261 43.8336 54.7915 45.1765 54.8335 46.6663C54.8305 47.6983 54.1499 48.6058 53.1599 48.8976C52.17 49.1895 51.106 48.7963 50.5436 47.931C49.7176 46.7042 48.1704 46.1854 46.7718 46.6663L40.8334 48.5691V40.483L63.0001 33.3581ZM40.8334 60.783V51.018L47.4834 48.8923C47.8767 48.7454 48.3199 48.8666 48.5836 49.1933C49.7092 50.9307 51.8449 51.7188 53.8293 51.1292C55.8137 50.5396 57.1725 48.7131 57.1668 46.643C57.1339 46.1758 57.4113 45.7424 57.8493 45.5766L63.0001 43.9258V53.1425L40.8334 60.783Z" fill="#7B8698"/>
<path d="M35.0002 9.33333C35.6445 9.33333 36.1668 8.811 36.1668 8.16667V1.16667C36.1668 0.522334 35.6445 0 35.0002 0C34.3558 0 33.8335 0.522334 33.8335 1.16667V8.16667C33.8335 8.811 34.3558 9.33333 35.0002 9.33333Z" fill="#7B8698"/>
<path d="M18.789 11.0219C19.077 11.5986 19.778 11.8326 20.3547 11.5446C20.9314 11.2566 21.1654 10.5556 20.8773 9.97892L17.3773 2.97892C17.0893 2.40224 16.3884 2.16823 15.8117 2.45625C15.235 2.74427 15.001 3.44524 15.289 4.02192L18.789 11.0219Z" fill="#7B8698"/>
<path d="M49.6452 11.5504C49.9234 11.6903 50.246 11.7132 50.5411 11.6139C50.8363 11.5146 51.0795 11.3015 51.2167 11.0219L54.7167 4.02192C55.0047 3.44524 54.7707 2.74427 54.194 2.45625C53.6173 2.16823 52.9163 2.40224 52.6283 2.97892L49.1283 9.97892C48.9876 10.2557 48.963 10.5772 49.06 10.8721C49.1571 11.1671 49.3676 11.4112 49.6452 11.5504Z" fill="#7B8698"/>
</g>
<defs>
<clipPath id="clip0_1629_2872">
<rect width="70" height="70" fill="white"/>
</clipPath>
</defs>
</svg>
