<svg width="20" height="20" viewBox="0 0 20 20" fill="none" xmlns="http://www.w3.org/2000/svg">
<path d="M13.3334 7.49157V16.9582C13.3334 18.1666 12.4667 18.6749 11.4084 18.0916L8.13342 16.2666C7.78342 16.0749 7.21675 16.0749 6.86675 16.2666L3.59175 18.0916C2.53341 18.6749 1.66675 18.1666 1.66675 16.9582V7.49157C1.66675 6.06657 2.83341 4.8999 4.25841 4.8999H10.7417C12.1667 4.8999 13.3334 6.06657 13.3334 7.49157Z" stroke="#596579" stroke-width="1.5" stroke-linecap="round" stroke-linejoin="round"/>
<path d="M18.3334 4.25817V13.7248C18.3334 14.9332 17.4667 15.4415 16.4084 14.8582L13.3334 13.1415V7.4915C13.3334 6.0665 12.1667 4.89984 10.7417 4.89984H6.66675V4.25817C6.66675 2.83317 7.83341 1.6665 9.25841 1.6665H15.7417C17.1667 1.6665 18.3334 2.83317 18.3334 4.25817Z" stroke="#596579" stroke-width="1.5" stroke-linecap="round" stroke-linejoin="round"/>
<path d="M5.8335 10H9.16683" stroke="#596579" stroke-width="1.5" stroke-linecap="round" stroke-linejoin="round"/>
<path d="M7.5 11.6663V8.33301" stroke="#596579" stroke-width="1.5" stroke-linecap="round" stroke-linejoin="round"/>
</svg>
