<svg width="38" height="44" viewBox="0 0 38 44" fill="none" xmlns="http://www.w3.org/2000/svg">
<rect width="38" height="38" rx="6" fill="#66A53A"/>
<path d="M28 10H12C11.7348 10 11.4804 10.1054 11.2929 10.2929C11.1054 10.4804 11 10.7348 11 11V13.59C11 14.113 11.213 14.627 11.583 14.997L17 20.414V28C17.0002 28.1704 17.0439 28.3379 17.1269 28.4867C17.2099 28.6354 17.3295 28.7605 17.4744 28.8502C17.6193 28.9398 17.7847 28.9909 17.9549 28.9988C18.1251 29.0066 18.2945 28.9709 18.447 28.895L22.447 26.895C22.786 26.725 23 26.379 23 26V20.414L28.417 14.997C28.787 14.627 29 14.113 29 13.59V11C29 10.7348 28.8946 10.4804 28.7071 10.2929C28.5196 10.1054 28.2652 10 28 10ZM21.293 19.293C21.2 19.3857 21.1262 19.4959 21.0759 19.6172C21.0256 19.7386 20.9998 19.8687 21 20V25.382L19 26.382V20C19.0002 19.8687 18.9744 19.7386 18.9241 19.6172C18.8738 19.4959 18.8 19.3857 18.707 19.293L13 13.59V12H27.001L27.003 13.583L21.293 19.293Z" fill="white"/>
<path d="M32.875 17.75H13.5416C13.2212 17.75 12.9138 17.8817 12.6872 18.1161C12.4606 18.3505 12.3333 18.6685 12.3333 19V22.2375C12.3333 22.8913 12.5907 23.5338 13.0378 23.9963L19.5833 30.7675V40.25C19.5835 40.463 19.6363 40.6723 19.7366 40.8583C19.837 41.0443 19.9815 41.2007 20.1566 41.3127C20.3317 41.4247 20.5315 41.4887 20.7372 41.4985C20.9428 41.5083 21.1475 41.4636 21.3318 41.3688L26.1651 38.8688C26.5747 38.6562 26.8333 38.2237 26.8333 37.75V30.7675L33.3789 23.9963C33.8259 23.5338 34.0833 22.8913 34.0833 22.2375V19C34.0833 18.6685 33.956 18.3505 33.7294 18.1161C33.5028 17.8817 33.1954 17.75 32.875 17.75ZM24.7707 29.3663C24.6583 29.4821 24.5691 29.6199 24.5083 29.7715C24.4476 29.9232 24.4164 30.0858 24.4166 30.25V36.9775L22 38.2275V30.25C22.0002 30.0858 21.969 29.9232 21.9083 29.7715C21.8475 29.6199 21.7584 29.4821 21.6459 29.3663L14.75 22.2375V20.25H31.6679L31.6703 22.2288L24.7707 29.3663Z" fill="white"/>
</svg>
