<svg width="26" height="26" viewBox="0 0 26 26" fill="none" xmlns="http://www.w3.org/2000/svg">
<path d="M4.0625 13H4.875C6.71775 13 8.79612 14.0132 9.75 15.4375H13C14.6307 15.4375 16.25 17.0568 16.25 18.6875H8.9375" stroke="white" stroke-miterlimit="10"/>
<path d="M15.7308 17.0625H21.125C24.0703 17.0625 24.375 18.6875 24.375 18.6875L12.74 23.413C11.8146 23.7835 10.7746 23.7404 9.88244 23.2944L4.0625 20.3385" stroke="white" stroke-miterlimit="10"/>
<path d="M19.5 13C21.2949 13 22.75 11.5449 22.75 9.75C22.75 7.95507 21.2949 6.5 19.5 6.5C17.7051 6.5 16.25 7.95507 16.25 9.75C16.25 11.5449 17.7051 13 19.5 13Z" stroke="white" stroke-miterlimit="10" stroke-linecap="square"/>
<path d="M4.0625 11.375H0.8125V21.9375H4.0625V11.375Z" stroke="white" stroke-miterlimit="10" stroke-linecap="square"/>
<path d="M9.75 8.125C11.5449 8.125 13 6.66993 13 4.875C13 3.08007 11.5449 1.625 9.75 1.625C7.95507 1.625 6.5 3.08007 6.5 4.875C6.5 6.66993 7.95507 8.125 9.75 8.125Z" stroke="white" stroke-miterlimit="10" stroke-linecap="square"/>
</svg>
