<svg width="32" height="38" viewBox="0 0 32 38" fill="none" xmlns="http://www.w3.org/2000/svg">
<path d="M16.029 8.19067C10.6507 8.19067 6.25659 12.5848 6.25659 17.9631C6.25659 20.7753 7.48693 23.4821 9.56094 25.31C11.1077 26.8567 10.967 30.1611 10.9319 30.1962C10.9319 30.372 10.967 30.5126 11.1077 30.6532C11.2131 30.7587 11.3889 30.829 11.5295 30.829H20.4934C20.6692 30.829 20.8098 30.7587 20.9152 30.6532C21.0207 30.5478 21.091 30.372 21.091 30.1962C21.091 30.1611 20.9152 26.8567 22.4619 25.31C22.4971 25.2749 22.5322 25.2397 22.5674 25.2046C24.6063 23.3415 25.8014 20.705 25.8014 17.9631C25.8014 12.5848 21.4074 8.19067 16.029 8.19067ZM21.6534 24.3961C21.6183 24.4312 21.548 24.5015 21.548 24.5367C20.177 26.0131 19.931 28.4386 19.8958 29.5986H12.1271C12.0919 28.4386 11.8459 25.9076 10.3694 24.3961C8.50636 22.779 7.41663 20.4238 7.41663 17.928C7.41663 13.1824 11.2483 9.35071 15.9939 9.35071C20.7395 9.35071 24.5711 13.1824 24.5711 17.928C24.5711 20.4238 23.5165 22.779 21.6534 24.3961Z" fill="#F0F2FF"/>
<path d="M15.9937 10.6865C15.6773 10.6865 15.3961 10.9677 15.3961 11.2841C15.3961 11.6005 15.6773 11.8817 15.9937 11.8817C19.5441 11.8817 22.3915 14.7642 22.3915 18.2795C22.3915 18.5959 22.6727 18.8771 22.9891 18.8771C23.3055 18.8771 23.5867 18.5959 23.5867 18.2795C23.6218 14.0963 20.212 10.6865 15.9937 10.6865Z" fill="#F0F2FF"/>
<path d="M19.8958 31.4966H12.0919C11.2834 31.4966 10.6155 32.1645 10.6155 32.973C10.6155 33.7815 11.2834 34.4494 12.0919 34.4494H19.8606C20.7043 34.4143 21.3722 33.7815 21.3722 32.973C21.3722 32.1645 20.7043 31.4966 19.8958 31.4966ZM19.8958 33.2191H12.0919C11.9513 33.2191 11.8107 33.1136 11.8107 32.9378C11.8107 32.7621 11.9161 32.6566 12.0919 32.6566H19.8606C20.0012 32.6566 20.1418 32.7621 20.1418 32.9378C20.1418 33.1136 20.0364 33.2191 19.8958 33.2191Z" fill="#F0F2FF"/>
<path d="M18.7357 35.0471H13.2519C12.4434 35.0471 11.7755 35.715 11.7755 36.5235C11.7755 37.332 12.4434 37.9999 13.2519 37.9999H18.7357C19.5442 37.9999 20.2121 37.332 20.2121 36.5235C20.2121 35.6799 19.5442 35.0471 18.7357 35.0471ZM18.7357 36.7696H13.2519C13.1113 36.7696 12.9707 36.6641 12.9707 36.4884C12.9707 36.3126 13.0762 36.2072 13.2519 36.2072H18.7357C18.8763 36.2072 19.017 36.3126 19.017 36.4884C19.017 36.6641 18.8763 36.7696 18.7357 36.7696Z" fill="#F0F2FF"/>
<path d="M15.9938 5.2729C16.3454 5.2729 16.5914 4.99168 16.5914 4.6753V0.597595C16.5914 0.281221 16.3102 0 15.9938 0C15.6775 0 15.3962 0.281221 15.3962 0.597595V4.6753C15.3962 4.99168 15.6775 5.2729 15.9938 5.2729Z" fill="#F0F2FF"/>
<path d="M25.942 3.02324C25.6608 2.81233 25.3093 2.91779 25.1335 3.16385L22.8837 6.53851C22.6728 6.81973 22.7431 7.20641 23.0244 7.38217C23.1298 7.45247 23.2353 7.48763 23.3407 7.48763C23.5516 7.48763 23.7274 7.38217 23.8329 7.20641L26.0826 3.83175C26.2935 3.58568 26.2232 3.19901 25.942 3.02324Z" fill="#F0F2FF"/>
<path d="M8.85775 7.34707C8.96321 7.34707 9.06867 7.31191 9.17412 7.24161C9.45534 7.06585 9.52565 6.67917 9.34989 6.39795L7.17043 2.98814C6.99466 2.70692 6.60798 2.63661 6.32676 2.81238C6.04554 2.98814 5.97524 3.37482 6.151 3.65604L8.33046 7.06585C8.47107 7.27676 8.64683 7.34707 8.85775 7.34707Z" fill="#F0F2FF"/>
<path d="M4.60436 11.073L1.05395 9.13965C0.772727 8.99904 0.386048 9.1045 0.245438 9.38572C0.0696745 9.66694 0.175132 10.0536 0.491506 10.1942L4.04192 12.1276C4.14738 12.1628 4.21769 12.1979 4.32314 12.1979C4.53406 12.1979 4.74497 12.0925 4.85043 11.8816C4.99104 11.6003 4.88558 11.2137 4.60436 11.073Z" fill="#F0F2FF"/>
<path d="M31.7774 9.38572C31.6368 9.1045 31.2501 8.99904 30.9689 9.13965L27.3833 11.073C27.1021 11.2137 26.9966 11.6003 27.1372 11.8816C27.2427 12.0925 27.4536 12.1979 27.6645 12.1979C27.77 12.1979 27.8754 12.1628 27.9457 12.1276L31.5313 10.1942C31.8125 10.0536 31.918 9.66694 31.7774 9.38572Z" fill="#F0F2FF"/>
</svg>
