<svg width="38" height="38" viewBox="0 0 38 38" fill="none" xmlns="http://www.w3.org/2000/svg">
<path d="M19.4959 20.7386C19.4256 20.7233 19.3534 20.7206 19.2822 20.7312C18.5685 20.6482 18.0301 20.0443 18.0289 19.3261C18.0289 18.9818 17.7498 18.7028 17.4056 18.7028C17.0614 18.7028 16.7823 18.9818 16.7823 19.3261C16.7841 20.5255 17.5864 21.5761 18.7429 21.8936V22.5169C18.7429 22.8611 19.022 23.1402 19.3662 23.1402C19.7104 23.1402 19.9895 22.8611 19.9895 22.5169V21.9313C21.3244 21.6519 22.2317 20.4086 22.0914 19.0521C21.9508 17.6957 20.8079 16.6648 19.4441 16.6645C18.6626 16.6645 18.0289 16.0309 18.0289 15.2493C18.0289 14.4677 18.6626 13.8341 19.4441 13.8341C20.2257 13.8341 20.8594 14.4677 20.8594 15.2493C20.8594 15.5935 21.1385 15.8726 21.4827 15.8726C21.8269 15.8726 22.106 15.5935 22.106 15.2493C22.1042 13.9899 21.2218 12.9037 19.9895 12.6437V12.0764C19.9895 11.7322 19.7104 11.4531 19.3662 11.4531C19.022 11.4531 18.7429 11.7322 18.7429 12.0764V12.6818C17.4567 13.033 16.6289 14.2818 16.806 15.6032C16.9832 16.9247 18.1108 17.9111 19.4441 17.9108C20.2154 17.9108 20.8445 18.5284 20.8585 19.2993C20.8728 20.0702 20.2665 20.7106 19.4959 20.7386Z" fill="#F0F2FF"/>
<path d="M10.4056 17.3357C10.4056 22.3277 14.4523 26.3743 19.4442 26.3743C24.4362 26.3743 28.4828 22.3277 28.4828 17.3357C28.4828 12.3438 24.4362 8.29712 19.4442 8.29712C14.4547 8.3026 10.4114 12.3462 10.4056 17.3357ZM19.4442 9.54374C23.7477 9.54374 27.2362 13.0322 27.2362 17.3357C27.2362 21.6392 23.7477 25.1277 19.4442 25.1277C15.1407 25.1277 11.6523 21.6392 11.6523 17.3357C11.6571 13.0343 15.1429 9.54861 19.4442 9.54374Z" fill="#F0F2FF"/>
<path d="M31.5554 27.9109L26.6727 30.2179C25.9986 28.964 24.7054 28.166 23.2822 28.1258L18.7748 28.0019C18.0611 27.9815 17.3608 27.8007 16.7262 27.473L16.2676 27.2353C13.9192 26.0112 11.1201 26.0142 8.77417 27.2432L8.80277 26.2041C8.81221 25.8599 8.54103 25.5732 8.19681 25.5638L3.25416 25.4277C2.90994 25.4183 2.62355 25.6895 2.61411 26.0337L2.31555 36.8801C2.30611 37.2243 2.57729 37.511 2.92151 37.5205L7.86416 37.6565H7.8812C8.21903 37.6565 8.49538 37.3878 8.50451 37.0503L8.51882 36.5313L9.80287 35.8438C10.3069 35.5726 10.8961 35.5081 11.4467 35.6639L19.1145 37.816C19.1279 37.82 19.1413 37.823 19.1549 37.826C19.7092 37.942 20.274 38.0001 20.8401 37.9998C22.0393 38.0004 23.2244 37.742 24.3143 37.2417C24.3411 37.2295 24.3669 37.2152 24.3916 37.1991L35.5092 30.0079C35.7862 29.8286 35.8757 29.4649 35.7134 29.1776C34.888 27.7131 33.0574 27.1552 31.5554 27.9109ZM3.5789 36.2915L3.84308 26.6911L7.53942 26.7927L7.27524 36.3935L3.5789 36.2915ZM23.7528 36.1284C22.3987 36.7395 20.8864 36.9081 19.431 36.6108L11.7839 34.4642C10.9232 34.221 10.0019 34.3218 9.21456 34.7451L8.55838 35.0966L8.73399 28.7135C10.8133 27.3305 13.48 27.1884 15.6945 28.3422L16.1531 28.5799C16.9548 28.9938 17.8389 29.2221 18.7407 29.2482L23.2485 29.3721C24.5146 29.4086 25.5898 30.3101 25.8467 31.5507L19.1324 31.3653C18.7882 31.3559 18.5018 31.6273 18.4921 31.9713C18.4826 32.3155 18.7541 32.6022 19.098 32.6116L26.5077 32.8155H26.5251C26.8626 32.8152 27.1387 32.5465 27.1478 32.2093C27.1554 31.9384 27.1353 31.6672 27.0875 31.4006L32.0956 29.0343C32.1005 29.0322 32.1054 29.0297 32.1102 29.0273C32.8206 28.6678 33.6795 28.7881 34.2638 29.3289L23.7528 36.1284Z" fill="#F0F2FF"/>
<path d="M20.0677 6.54475V0.62331C20.0677 0.279089 19.7886 0 19.4444 0C19.1001 0 18.821 0.279089 18.821 0.62331V6.54475C18.821 6.88897 19.1001 7.16806 19.4444 7.16806C19.7886 7.16806 20.0677 6.88897 20.0677 6.54475Z" fill="#F0F2FF"/>
<path d="M24.7426 6.5449V3.74001C24.7426 3.39579 24.4635 3.1167 24.1193 3.1167C23.7751 3.1167 23.496 3.39579 23.496 3.74001V6.5449C23.496 6.88912 23.7751 7.16821 24.1193 7.16821C24.4635 7.16821 24.7426 6.88912 24.7426 6.5449Z" fill="#F0F2FF"/>
<path d="M15.3929 6.5449V3.74001C15.3929 3.39579 15.1138 3.1167 14.7695 3.1167C14.4253 3.1167 14.1462 3.39579 14.1462 3.74001V6.5449C14.1462 6.88912 14.4253 7.16821 14.7695 7.16821C15.1138 7.16821 15.3929 6.88912 15.3929 6.5449Z" fill="#F0F2FF"/>
</svg>
