<svg width="38" height="38" viewBox="0 0 38 38" fill="none" xmlns="http://www.w3.org/2000/svg">
<path d="M31.6667 13.0626V28.5001C31.6667 33.2501 28.8325 34.8334 25.3334 34.8334H12.6667C9.16754 34.8334 6.33337 33.2501 6.33337 28.5001V13.0626C6.33337 7.91675 9.16754 6.72925 12.6667 6.72925C12.6667 7.71091 13.0625 8.59758 13.7117 9.24675C14.3608 9.89592 15.2475 10.2917 16.2292 10.2917H21.7709C23.7342 10.2917 25.3334 8.69258 25.3334 6.72925C28.8325 6.72925 31.6667 7.91675 31.6667 13.0626Z" stroke="#F0F2FF" stroke-width="1.5" stroke-linecap="round" stroke-linejoin="round"/>
<path d="M25.3333 6.72925C25.3333 8.69258 23.7341 10.2917 21.7708 10.2917H16.2291C15.2475 10.2917 14.3607 9.89592 13.7116 9.24675C13.0624 8.59758 12.6666 7.71091 12.6666 6.72925C12.6666 4.76591 14.2658 3.16675 16.2291 3.16675H21.7708C22.7525 3.16675 23.6391 3.56258 24.2883 4.21175C24.9375 4.86091 25.3333 5.74758 25.3333 6.72925Z" stroke="#F0F2FF" stroke-width="1.5" stroke-linecap="round" stroke-linejoin="round"/>
<path d="M12.6666 20.5833H19" stroke="#F0F2FF" stroke-width="1.5" stroke-linecap="round" stroke-linejoin="round"/>
<path d="M12.6666 26.9167H25.3333" stroke="#F0F2FF" stroke-width="1.5" stroke-linecap="round" stroke-linejoin="round"/>
</svg>
