<svg width="278" height="294" viewBox="0 0 278 294" fill="none" xmlns="http://www.w3.org/2000/svg">
<path fill-rule="evenodd" clip-rule="evenodd" d="M534.239 114.743C507.977 153.71 439.769 121.984 400.868 148.347C346.153 185.427 337.339 301.973 271.912 292.518C208.612 283.371 246.338 164.244 200.711 119.423C149.179 68.7993 37.617 98.7983 7.75801 33.0251C-19.8491 -27.7877 32.9068 -100.552 78.851 -149.011C119.731 -192.128 186.971 -187.251 240.688 -212.652C296.506 -239.047 336.983 -301.406 398.723 -300.269C463.593 -299.075 539.336 -266.725 563.96 -206.701C589.101 -145.411 520.032 -85.3752 513.933 -19.4174C509.665 26.7474 560.148 76.2987 534.239 114.743Z" fill="#D6DFF0"/>
</svg>
