<svg width="244" height="295" viewBox="0 0 244 295" fill="none" xmlns="http://www.w3.org/2000/svg">
<path fill-rule="evenodd" clip-rule="evenodd" d="M211.785 133.467C188.038 168.702 126.365 140.015 91.1893 163.852C41.7151 197.38 33.7456 302.762 -25.4138 294.213C-82.6504 285.942 -48.5386 178.226 -89.7945 137.698C-136.391 91.9242 -237.266 119.05 -264.265 59.5767C-289.228 4.58914 -241.525 -61.2053 -199.982 -105.022C-163.017 -144.009 -102.219 -139.599 -53.6472 -162.568C-3.1755 -186.434 33.424 -242.819 89.2503 -241.792C147.906 -240.712 216.394 -211.461 238.659 -157.186C261.392 -101.767 198.939 -47.4821 193.424 12.1577C189.565 53.9004 235.213 98.7053 211.785 133.467Z" fill="#D6DFF0"/>
</svg>
