<svg width="375" height="147" viewBox="0 0 375 147" fill="none" xmlns="http://www.w3.org/2000/svg">
<path fill-rule="evenodd" clip-rule="evenodd" d="M390.914 20.1966C429.418 43.51 402.238 110.244 429.271 146.237C467.294 196.861 579.21 199.871 573.209 262.908C567.402 323.897 451.671 293.346 410.911 339.085C364.874 390.745 398.768 496.087 337.228 527.715C280.329 556.958 208.256 509.87 159.755 468.167C116.599 431.06 118.137 366.502 91.3345 316.289C63.4835 264.112 1.93794 228.287 0.152546 169.164C-1.72334 107.043 25.7027 33.0699 81.9862 6.71846C139.456 -20.1883 200.11 43.1015 263.499 45.8671C307.867 47.8028 352.926 -2.80366 390.914 20.1966Z" fill="#DBF5C9"/>
</svg>
