<svg width="428" height="185" viewBox="0 0 428 185" fill="none" xmlns="http://www.w3.org/2000/svg">
<path fill-rule="evenodd" clip-rule="evenodd" d="M144.18 0.403663C193.639 3.07382 201.849 81.9396 246.747 102.863C309.895 132.293 420.088 77.2009 446.939 141.5C472.917 203.709 344.745 234.045 328.89 299.571C310.983 373.579 398.487 458.261 355.147 520.862C315.076 578.741 220.709 570.394 152.013 555.056C90.8893 541.408 58.9168 477.946 6.87245 443.1C-47.2079 406.891 -125.518 404.02 -157.899 347.556C-191.92 288.231 -203.644 202.211 -162.671 147.457C-120.835 91.5498 -29.1535 121.542 33.81 91.3678C77.8791 70.2484 95.3844 -2.23062 144.18 0.403663Z" fill="#DBF5C9"/>
</svg>
