<svg width="218" height="294" viewBox="0 0 218 294" fill="none" xmlns="http://www.w3.org/2000/svg">
<path fill-rule="evenodd" clip-rule="evenodd" d="M410.827 156.277C390.651 186.214 338.249 161.84 308.362 182.094C266.326 210.581 259.555 300.12 209.29 292.856C160.659 285.828 189.642 194.307 154.589 159.872C114.998 120.98 29.2884 144.027 6.34866 93.4958C-14.861 46.7753 25.6697 -9.12734 60.9672 -46.3565C92.3742 -79.4824 144.032 -75.7353 185.301 -95.2503C228.185 -115.529 259.282 -163.437 306.715 -162.563C356.552 -161.646 414.743 -136.793 433.661 -90.6779C452.976 -43.5911 399.912 2.53264 395.227 53.2059C391.948 88.6729 430.733 126.742 410.827 156.277Z" fill="#D6DFF0"/>
</svg>
