<svg width="428" height="161" viewBox="0 0 428 161" fill="none" xmlns="http://www.w3.org/2000/svg">
<path fill-rule="evenodd" clip-rule="evenodd" d="M312.413 18.2208C346.255 38.7113 322.366 97.3651 346.126 129C379.544 173.494 477.909 176.139 472.635 231.544C467.531 285.147 365.813 258.296 329.989 298.496C289.527 343.901 319.316 436.488 265.227 464.286C215.218 489.989 151.872 448.602 109.244 411.948C71.3139 379.335 72.6653 322.593 49.1082 278.461C24.6296 232.602 -29.4637 201.115 -31.0329 149.15C-32.6816 94.5517 -8.57649 29.5354 40.8919 6.37472C91.4027 -17.274 144.712 38.3523 200.427 40.783C239.422 42.4843 279.025 -1.99443 312.413 18.2208Z" fill="#DBF5C9"/>
</svg>
